<svg width="50" height="51" viewBox="0 0 50 51" fill="none" xmlns="http://www.w3.org/2000/svg">
<g clip-path="url(#clip0_4_88)">
<path d="M24.7596 0.047965C24.3829 0.0926268 24.0277 0.247737 23.7389 0.493774C23.4501 0.739811 23.2405 1.06578 23.1366 1.43066L19.4116 13.6903L11.7193 9.66335C11.1423 9.27874 10.3731 9.44797 9.79618 10.0249C9.21925 10.6018 9.23079 11.1903 9.61541 11.7672L13.6423 19.4595L1.38271 23.1826C0.968623 23.2882 0.601495 23.5287 0.339293 23.8661C0.077091 24.2035 -0.0652466 24.6187 -0.0652466 25.046C-0.0652466 25.4734 0.077091 25.8885 0.339293 26.226C0.601495 26.5634 0.968623 26.8039 1.38271 26.9095L13.5808 30.5749L9.61541 38.3287C9.23079 38.9057 9.40002 39.6749 9.97694 40.2518C10.3616 40.6364 10.7943 40.7941 11.1789 40.7941C11.3712 40.7941 11.7077 40.8057 11.9 40.6134L19.5308 36.646L23.1366 48.6653C23.2421 49.0794 23.4826 49.4465 23.8201 49.7087C24.1575 49.9709 24.5727 50.1132 25 50.1132C25.4274 50.1132 25.8425 49.9709 26.18 49.7087C26.5174 49.4465 26.7579 49.0794 26.8635 48.6653L30.5289 36.4672L38.1019 40.4326C38.2943 40.6249 38.6289 40.6134 38.8231 40.6134C39.2077 40.6134 39.6404 40.4557 40.025 40.071C40.6019 39.4941 40.5769 38.7249 40.3846 38.148L36.3577 30.6364L48.6173 26.9114C49.0314 26.8058 49.3985 26.5654 49.6607 26.2279C49.9229 25.8905 50.0653 25.4753 50.0653 25.048C50.0653 24.6206 49.9229 24.2055 49.6607 23.868C49.3985 23.5306 49.0314 23.2901 48.6173 23.1845L36.5385 19.5191L40.3846 11.7672C40.7693 11.1903 40.6019 10.421 40.0231 9.84412C39.4462 9.2672 38.6769 9.29027 38.1 9.48258L30.4712 13.4518L26.8635 1.43066C26.7376 0.985774 26.4556 0.601137 26.0693 0.347202C25.6829 0.0932676 25.218 -0.0129645 24.7596 0.047965ZM25 8.6422V25.048L29.0269 21.021C29.2446 21.2419 29.5125 21.4069 29.8077 21.5018L41.4058 25.048H25L29.0269 29.0749C28.8061 29.2926 28.6411 29.5604 28.5462 29.8557L25 41.4537V25.048L20.9731 29.0749C20.7554 28.854 20.4875 28.6891 20.1923 28.5941L8.59425 25.048H25L20.9731 21.021C21.194 20.8034 21.3589 20.5355 21.4539 20.2403L25 8.6422Z" fill="#0A1C34"/>
</g>
<defs>
<clipPath id="clip0_4_88">
<rect width="50" height="50" fill="white" transform="translate(0 0.0479736)"/>
</clipPath>
</defs>
</svg>
